<svg xmlns="http://www.w3.org/2000/svg" xmlns:xlink="http://www.w3.org/1999/xlink" width="500" zoomAndPan="magnify" viewBox="0 0 375 374.999991" height="500" preserveAspectRatio="xMidYMid meet" version="1.0"><defs><clipPath id="id1"><path d="M 53 2 L 304.878906 2 L 304.878906 373 L 53 373 Z M 53 2 " clip-rule="nonzero"/></clipPath></defs><rect x="-37.5" width="450" fill="#ffffff" y="-37.499999" height="449.999989" fill-opacity="1"/><rect x="-37.5" width="450" fill="#2c3d4f" y="-37.499999" height="449.999989" fill-opacity="1"/><rect x="-37.5" width="450" fill="#ffffff" y="-37.499999" height="449.999989" fill-opacity="1"/><rect x="-37.5" width="450" fill="#2c3d4f" y="-37.499999" height="449.999989" fill-opacity="1"/><g clip-path="url(#id1)"><path fill="#f0f0ea" d="M 246.425781 2.167969 C 225.539062 2.167969 206.988281 15.222656 199.230469 35.292969 L 191.578125 53.304688 L 179.972656 48.21875 C 183.308594 40.566406 179.824219 31.652344 172.171875 28.304688 C 164.511719 24.960938 155.585938 28.449219 152.230469 36.105469 L 146.171875 49.964844 C 142.828125 57.621094 146.316406 66.542969 153.976562 69.894531 C 161.632812 73.246094 170.546875 69.75 173.898438 62.09375 L 185.664062 67.234375 L 162 122.933594 L 149.644531 117.527344 C 152.980469 109.875 149.496094 100.960938 141.839844 97.613281 C 134.183594 94.269531 125.253906 97.757812 121.902344 105.414062 L 115.84375 119.269531 C 112.5 126.925781 115.988281 135.835938 123.648438 139.1875 C 131.304688 142.539062 140.21875 139.050781 143.570312 131.386719 L 156.074219 136.851562 L 132.398438 192.566406 L 119.300781 186.835938 C 122.648438 179.179688 119.15625 170.269531 111.5 166.917969 C 103.839844 163.574219 94.925781 167.066406 91.574219 174.71875 L 85.5 188.578125 C 82.15625 196.234375 85.644531 205.144531 93.304688 208.496094 C 100.960938 211.84375 109.898438 208.347656 113.242188 200.695312 L 126.484375 206.484375 L 102.808594 262.199219 L 88.972656 256.140625 C 92.316406 248.488281 88.828125 239.5625 81.167969 236.210938 C 73.511719 232.867188 64.597656 236.355469 61.246094 244.011719 L 55.171875 257.871094 C 51.828125 265.527344 55.316406 274.449219 62.976562 277.800781 C 70.632812 281.152344 79.5625 277.664062 82.914062 270 L 96.894531 276.117188 L 76.957031 323.042969 L 142.179688 368.398438 L 142.179688 300.96875 C 133.820312 300.96875 127.046875 294.199219 127.046875 285.839844 C 127.046875 277.480469 133.820312 270.710938 142.179688 270.710938 C 150.542969 270.710938 157.316406 277.480469 157.316406 285.839844 L 157.316406 372.832031 L 172.449219 372.832031 L 172.449219 232.886719 C 164.089844 232.886719 157.316406 226.117188 157.316406 217.757812 C 157.316406 209.398438 164.089844 202.628906 172.449219 202.628906 C 180.117188 202.628906 186.386719 208.351562 187.378906 215.75 L 187.585938 215.75 L 187.585938 372.832031 L 202.71875 372.832031 L 202.71875 164.804688 C 194.359375 164.804688 187.585938 158.035156 187.585938 149.675781 C 187.585938 141.320312 194.359375 134.546875 202.71875 134.546875 C 211.082031 134.546875 217.855469 141.320312 217.855469 149.675781 L 217.855469 372.832031 L 232.988281 372.832031 L 232.988281 96.726562 C 224.628906 96.726562 217.855469 89.953125 217.855469 81.597656 C 217.855469 73.238281 224.628906 66.46875 232.988281 66.46875 C 241.351562 66.46875 248.125 73.238281 248.125 81.597656 C 248.125 82.84375 247.929688 84.042969 247.652344 85.199219 L 248.125 85.199219 L 248.125 357.863281 C 259.121094 330.316406 283.898438 303.121094 302.824219 293.476562 L 304.878906 292.429688 L 304.878906 290.109375 C 304.878906 248.464844 297.363281 221.140625 290.101562 194.710938 C 282.707031 167.824219 275.066406 140.042969 274.832031 96.207031 C 288.75 86.820312 297.3125 70.578125 297.3125 53.316406 C 297.3125 25.132812 275.277344 2.199219 247.429688 2.199219 L 247.371094 2.199219 L 247.265625 5.996094 Z M 246.425781 2.167969 " fill-opacity="1" fill-rule="nonzero"/></g></svg>